<svg width="17" height="14" viewBox="0 0 17 14" fill="none" xmlns="http://www.w3.org/2000/svg">
<path fill-rule="evenodd" clip-rule="evenodd" d="M3.30668 3.60557e-07H13.36C13.7255 -7.97278e-06 14.0409 -1.63838e-05 14.302 0.0177919C14.5768 0.0365503 14.8517 0.0778005 15.1234 0.190301C15.7359 0.444034 16.2227 0.930726 16.4763 1.54329C16.5888 1.8149 16.6301 2.08983 16.6489 2.36468C16.6667 2.62573 16.6667 2.94113 16.6667 3.30668V10.0267C16.6667 10.3922 16.6667 10.7076 16.6489 10.9687C16.6301 11.2435 16.5888 11.5184 16.4763 11.7901C16.2227 12.4026 15.7359 12.8893 15.1234 13.143C14.8517 13.2555 14.5768 13.2968 14.302 13.3156C14.0409 13.3333 13.7255 13.3333 13.36 13.3333H3.30667C2.94113 13.3333 2.62573 13.3333 2.36468 13.3156C2.08982 13.2968 1.8149 13.2555 1.54329 13.143C0.930725 12.8893 0.444034 12.4026 0.1903 11.7901C0.0778003 11.5184 0.0365503 11.2435 0.0177919 10.9687C-1.63838e-05 10.7076 -7.97277e-06 10.3922 3.60557e-07 10.0267V3.30668C-7.97277e-06 2.94114 -1.63838e-05 2.62573 0.0177919 2.36468C0.0365503 2.08983 0.0778003 1.8149 0.1903 1.54329C0.444034 0.930726 0.930725 0.444034 1.54329 0.190301C1.8149 0.0778005 2.08982 0.0365503 2.36468 0.0177919C2.62573 -1.63838e-05 2.94114 -7.97278e-06 3.30668 3.60557e-07ZM1.93121 1.89814C2.23428 1.55178 2.76075 1.51668 3.10712 1.81975L7.78458 5.9125C8.09875 6.18742 8.56791 6.18742 8.88208 5.9125L13.5596 1.81975C13.9059 1.51668 14.4324 1.55178 14.7354 1.89814C15.0385 2.24451 15.0034 2.77098 14.6571 3.07404L9.97958 7.16683C9.037 7.99158 7.62967 7.99158 6.68708 7.16683L2.00961 3.07404C1.66324 2.77098 1.62814 2.24451 1.93121 1.89814Z" fill="black"/>
</svg>
