<svg width="60" height="58" viewBox="0 0 60 58" fill="none" xmlns="http://www.w3.org/2000/svg">
<g filter="url(#filter0_d_206_473)">
<rect x="4" y="2" width="52" height="50" rx="12" fill="#91A1ED"/>
</g>
<path d="M46.5133 29.6992C46.203 29.1995 45.7638 28.7919 45.2418 28.5213C45.1315 28.4631 45.0109 28.4105 44.8823 28.3626H44.864C44.7119 28.3626 44.5664 28.3166 44.4439 28.2316C44.2148 28.1813 43.9797 28.1559 43.7436 28.1559C42.9917 28.1559 42.2863 28.4048 41.7028 28.8754C41.5719 28.9811 41.4076 29.0393 41.2397 29.0393C41.0148 29.0393 40.805 28.9393 40.6642 28.7645C40.5403 28.611 40.4835 28.4184 40.5047 28.2221C40.5253 28.0253 40.6215 27.8491 40.775 27.7247C41.6114 27.0494 42.6651 26.6774 43.7422 26.6774C44.0858 26.6774 44.4294 26.715 44.7664 26.7901C45.3972 26.2904 45.7961 25.5817 45.8956 24.7777C45.9116 24.6509 45.9196 24.5231 45.9196 24.3967C45.9196 23.6604 45.6501 22.9465 45.1606 22.3885C44.6673 21.8268 43.9872 21.4661 43.2452 21.374C43.1551 21.3628 43.064 21.3553 42.9734 21.3524C42.9067 21.4281 42.8373 21.5027 42.7655 21.5751C42.4745 21.8681 42.1159 22.1339 41.6687 22.389C41.3317 22.5802 40.9495 22.7605 40.5332 22.9249C39.8119 23.209 39.2468 23.3447 39.2411 23.3457C39.1867 23.3589 39.1285 23.3655 39.0703 23.3655C38.7281 23.3655 38.4334 23.1335 38.3522 22.8009C38.3057 22.6084 38.3372 22.4102 38.44 22.242C38.5399 22.0772 38.6962 21.9608 38.8821 21.9119L38.8966 21.9086L39.0309 22.2576L38.9384 21.8974L39.0713 21.8612C39.1905 21.8274 39.3594 21.7762 39.5594 21.7086C39.9208 21.5851 40.4535 21.3798 40.9388 21.1037C41.2589 20.9219 41.5279 20.7251 41.7156 20.5354C41.8231 20.4264 41.9282 20.3062 42.0287 20.1771L42.0765 20.1179C42.5379 19.5078 42.8049 18.7409 42.8045 17.9861C42.8036 17.2065 42.5285 16.4865 42.0089 15.9032C41.3917 15.2119 40.506 14.815 39.5785 14.815C38.7783 14.815 38.0085 15.109 37.4115 15.6425C37.2759 15.7637 37.1013 15.8304 36.9196 15.8304C36.7089 15.8304 36.508 15.7402 36.3681 15.5829C36.2372 15.4359 36.171 15.2462 36.1817 15.0494C36.1931 14.8521 36.2803 14.6713 36.4273 14.5397C36.7473 14.2538 37.1017 14.0142 37.4832 13.8254C37.3894 13.1195 37.0665 12.463 36.5586 11.9548C35.9433 11.339 35.1257 11.0004 34.2564 11C33.3866 11.0004 32.5691 11.339 31.9538 11.9548C31.3389 12.5701 31.0005 13.3887 31.0001 14.2584V19.5702H34.034C34.4413 19.5702 34.7727 19.9023 34.7727 20.3094C34.7727 20.7171 34.4413 21.0487 34.034 21.0487H31.0001V24.6956C31.8801 24.7369 32.6245 24.8549 33.268 25.054C34.0353 25.2902 34.6657 25.6537 35.1402 26.1333C35.4205 26.4164 35.657 26.7508 35.8438 27.1271C36.0865 27.6188 36.2165 28.1194 36.3028 28.5008C36.3502 28.7122 36.3916 28.9211 36.4315 29.125C36.5 29.4702 36.5643 29.7961 36.6497 30.0849C36.7281 30.3508 36.8172 30.5639 36.9234 30.7372C37.0543 30.9533 37.2125 31.1158 37.4199 31.2501C37.7152 31.4389 38.1047 31.5629 38.6102 31.6287C38.8046 31.6531 38.9787 31.7527 39.0997 31.9086C39.2208 32.0655 39.2734 32.2599 39.2485 32.4553C39.2007 32.8235 38.8857 33.1006 38.5163 33.1006L38.4206 33.094C37.8024 33.0146 37.2885 32.8615 36.8487 32.6267C36.43 32.4041 36.0803 32.1016 35.81 31.7292C35.6523 31.5141 35.5209 31.276 35.4078 31.0031C35.2909 30.7213 35.1984 30.4174 35.1074 30.0177C35.0609 29.8111 35.0206 29.6044 34.9802 29.3996C34.9388 29.1911 34.898 28.984 34.8511 28.7821C34.7159 28.1913 34.5558 27.785 34.3315 27.4647C34.1794 27.2463 33.9959 27.0631 33.7697 26.9048C33.4627 26.6907 33.0839 26.5268 32.6118 26.4037C32.156 26.2849 31.6153 26.2078 31 26.1755V39.7415C31.0005 40.6113 31.3389 41.4299 31.9533 42.0457C32.5691 42.661 33.3866 42.9995 34.2564 43C35.1256 42.9996 35.9432 42.661 36.5586 42.0457C37.1735 41.4295 37.5123 40.6113 37.5123 39.7415C37.5128 39.2705 37.3837 38.7534 37.1575 38.3227C36.9003 37.8299 36.5422 37.4665 36.0939 37.241C35.7475 37.0682 35.3641 36.9837 34.9215 36.9827C34.5145 36.9827 34.1832 36.6516 34.1832 36.2444C34.1832 35.8362 34.5145 35.5047 34.9219 35.5047C35.4265 35.5047 35.9052 35.5851 36.345 35.7438C36.7566 35.8917 37.1359 36.1091 37.4719 36.3891C38.0586 36.8799 38.5041 37.5529 38.7604 38.3353C38.9106 38.7951 38.9894 39.2812 38.9894 39.7415C38.9899 40.1087 38.9476 40.4731 38.8641 40.8292C39.2049 40.9456 39.5658 41.0067 39.9225 41.0067C40.7194 41.0062 41.4874 40.7136 42.0835 40.1829C42.7772 39.5653 43.1752 38.6776 43.1757 37.7473C43.1757 37.3532 43.1052 36.9672 42.9677 36.5995C42.8279 36.227 42.6204 35.8846 42.3524 35.5826C42.082 35.2778 42.1097 34.81 42.4134 34.5391C42.5495 34.4184 42.7236 34.3526 42.9043 34.3526C43.1155 34.3526 43.3169 34.4428 43.4572 34.601L43.5084 34.6597L43.5422 34.6654C43.5652 34.6687 43.5797 34.6701 43.614 34.6715C43.644 34.672 43.6858 34.6724 43.7435 34.6724C44.6128 34.672 45.4309 34.3333 46.0463 33.7181C46.6611 33.1019 46.9995 32.2838 47 31.4139C46.9996 30.8057 46.831 30.2126 46.5133 29.6992Z" fill="#FAFAFA"/>
<path d="M46.5133 29.6992C46.203 29.1995 45.7638 28.7919 45.2418 28.5213C45.1315 28.4631 45.0109 28.4105 44.8823 28.3626H44.864C44.7119 28.3626 44.5664 28.3166 44.4439 28.2316C44.2148 28.1813 43.9797 28.1559 43.7436 28.1559C42.9917 28.1559 42.2863 28.4048 41.7028 28.8754C41.5719 28.9811 41.4076 29.0393 41.2397 29.0393C41.0148 29.0393 40.805 28.9393 40.6642 28.7645C40.5403 28.611 40.4835 28.4184 40.5047 28.2221C40.5253 28.0253 40.6215 27.8491 40.775 27.7247C41.6114 27.0494 42.6651 26.6774 43.7422 26.6774C44.0858 26.6774 44.4294 26.715 44.7664 26.7901C45.3972 26.2904 45.7961 25.5817 45.8956 24.7777C45.9116 24.6509 45.9196 24.5231 45.9196 24.3967C45.9196 23.6604 45.6501 22.9465 45.1606 22.3885C44.6673 21.8268 43.9872 21.4661 43.2452 21.374C43.1551 21.3628 43.064 21.3553 42.9734 21.3524C42.9067 21.4281 42.8373 21.5027 42.7655 21.5751C42.4745 21.8681 42.1159 22.1339 41.6687 22.389C41.3317 22.5802 40.9495 22.7605 40.5332 22.9249C39.8119 23.209 39.2468 23.3447 39.2411 23.3457C39.1867 23.3589 39.1285 23.3655 39.0703 23.3655C38.7281 23.3655 38.4334 23.1335 38.3522 22.8009C38.3057 22.6084 38.3372 22.4102 38.44 22.242C38.5399 22.0772 38.6962 21.9608 38.8821 21.9119L38.8966 21.9086L39.0309 22.2576L38.9384 21.8974L39.0713 21.8612C39.1905 21.8274 39.3594 21.7762 39.5594 21.7086C39.9208 21.5851 40.4535 21.3798 40.9388 21.1037C41.2589 20.9219 41.5279 20.7251 41.7156 20.5354C41.8231 20.4264 41.9282 20.3062 42.0287 20.1771L42.0765 20.1179C42.5379 19.5078 42.8049 18.7409 42.8045 17.9861C42.8036 17.2065 42.5285 16.4865 42.0089 15.9032C41.3917 15.2119 40.506 14.815 39.5785 14.815C38.7783 14.815 38.0085 15.109 37.4115 15.6425C37.2759 15.7637 37.1013 15.8304 36.9196 15.8304C36.7089 15.8304 36.508 15.7402 36.3681 15.5829C36.2372 15.4359 36.171 15.2462 36.1817 15.0494C36.1931 14.8521 36.2803 14.6713 36.4273 14.5397C36.7473 14.2538 37.1017 14.0142 37.4832 13.8254C37.3894 13.1195 37.0665 12.463 36.5586 11.9548C35.9433 11.339 35.1257 11.0004 34.2564 11C33.3866 11.0004 32.5691 11.339 31.9538 11.9548C31.3389 12.5701 31.0005 13.3887 31.0001 14.2584V19.5702H34.034C34.4413 19.5702 34.7727 19.9023 34.7727 20.3094C34.7727 20.7171 34.4413 21.0487 34.034 21.0487H31.0001V24.6956C31.8801 24.7369 32.6245 24.8549 33.268 25.054C34.0353 25.2902 34.6657 25.6537 35.1402 26.1333C35.4205 26.4164 35.657 26.7508 35.8438 27.1271C36.0865 27.6188 36.2165 28.1194 36.3028 28.5008C36.3502 28.7122 36.3916 28.9211 36.4315 29.125C36.5 29.4702 36.5643 29.7961 36.6497 30.0849C36.7281 30.3508 36.8172 30.5639 36.9234 30.7372C37.0543 30.9533 37.2125 31.1158 37.4199 31.2501C37.7152 31.4389 38.1047 31.5629 38.6102 31.6287C38.8046 31.6531 38.9787 31.7527 39.0997 31.9086C39.2208 32.0655 39.2734 32.2599 39.2485 32.4553C39.2007 32.8235 38.8857 33.1006 38.5163 33.1006L38.4206 33.094C37.8024 33.0146 37.2885 32.8615 36.8487 32.6267C36.43 32.4041 36.0803 32.1016 35.81 31.7292C35.6523 31.5141 35.5209 31.276 35.4078 31.0031C35.2909 30.7213 35.1984 30.4174 35.1074 30.0177C35.0609 29.8111 35.0206 29.6044 34.9802 29.3996C34.9388 29.1911 34.898 28.984 34.8511 28.7821C34.7159 28.1913 34.5558 27.785 34.3315 27.4647C34.1794 27.2463 33.9959 27.0631 33.7697 26.9048C33.4627 26.6907 33.0839 26.5268 32.6118 26.4037C32.156 26.2849 31.6153 26.2078 31 26.1755V39.7415C31.0005 40.6113 31.3389 41.4299 31.9533 42.0457C32.5691 42.661 33.3866 42.9995 34.2564 43C35.1256 42.9996 35.9432 42.661 36.5586 42.0457C37.1735 41.4295 37.5123 40.6113 37.5123 39.7415C37.5128 39.2705 37.3837 38.7534 37.1575 38.3227C36.9003 37.8299 36.5422 37.4665 36.0939 37.241C35.7475 37.0682 35.3641 36.9837 34.9215 36.9827C34.5145 36.9827 34.1832 36.6516 34.1832 36.2444C34.1832 35.8362 34.5145 35.5047 34.9219 35.5047C35.4265 35.5047 35.9052 35.5851 36.345 35.7438C36.7566 35.8917 37.1359 36.1091 37.4719 36.3891C38.0586 36.8799 38.5041 37.5529 38.7604 38.3353C38.9106 38.7951 38.9894 39.2812 38.9894 39.7415C38.9899 40.1087 38.9476 40.4731 38.8641 40.8292C39.2049 40.9456 39.5658 41.0067 39.9225 41.0067C40.7194 41.0062 41.4874 40.7136 42.0835 40.1829C42.7772 39.5653 43.1752 38.6776 43.1757 37.7473C43.1757 37.3532 43.1052 36.9672 42.9677 36.5995C42.8279 36.227 42.6204 35.8846 42.3524 35.5826C42.082 35.2778 42.1097 34.81 42.4134 34.5391C42.5495 34.4184 42.7236 34.3526 42.9043 34.3526C43.1155 34.3526 43.3169 34.4428 43.4572 34.601L43.5084 34.6597L43.5422 34.6654C43.5652 34.6687 43.5797 34.6701 43.614 34.6715C43.644 34.672 43.6858 34.6724 43.7435 34.6724C44.6128 34.672 45.4309 34.3333 46.0463 33.7181C46.6611 33.1019 46.9995 32.2838 47 31.4139C46.9996 30.8057 46.831 30.2126 46.5133 29.6992Z" fill="#1C1C1C"/>
<path d="M26.744 11C25.8743 11.0004 25.0567 11.339 24.4413 11.9548C23.9335 12.4629 23.6106 13.12 23.5167 13.8249C23.8974 14.0138 24.2517 14.2528 24.5723 14.5393L24.6244 14.5905L24.6784 14.6525L24.7868 14.7717C24.8849 14.8779 25.0276 15.03 25.2022 15.2047C25.5181 15.5222 26.002 15.9797 26.515 16.3587C26.8553 16.6104 27.174 16.8011 27.4377 16.9105C27.6208 16.9866 27.7484 17.0124 27.8235 17.0209C28.0202 17.043 28.1962 17.1402 28.3191 17.2942C28.4426 17.4483 28.4984 17.6413 28.4763 17.8376C28.4345 18.2124 28.1192 18.4952 27.7427 18.4952L27.6611 18.4905C27.4086 18.4623 27.1504 18.3919 26.8716 18.2759C26.6398 18.1796 26.4032 18.0556 26.1473 17.8964C25.7461 17.6461 25.3128 17.3154 24.8599 16.9143C24.1967 16.3263 23.6893 15.7637 23.5588 15.6162C22.9651 15.0991 22.207 14.8145 21.4209 14.8145C20.4939 14.815 19.6082 15.2114 18.9915 15.9027C18.4578 16.4997 18.1645 17.2703 18.164 18.0711C18.164 18.6149 18.2996 19.1476 18.5578 19.6243H18.5667C18.8103 19.6243 19.0553 19.6426 19.2942 19.6797C19.6974 19.7426 19.9739 20.1206 19.9119 20.5232C19.855 20.8862 19.5486 21.1497 19.1825 21.1497C19.145 21.1497 19.1064 21.1468 19.068 21.1412C18.9047 21.1154 18.7356 21.1027 18.5667 21.1027C18.5277 21.1027 18.4893 21.1032 18.4498 21.1041C17.6021 21.1346 16.8098 21.4883 16.2203 22.1002C15.6327 22.7108 15.3093 23.5129 15.3093 24.3583C15.3093 24.3973 15.3097 24.4367 15.3107 24.4762C15.3417 25.3493 15.7242 26.1731 16.3668 26.7625C16.6615 26.7061 16.96 26.6775 17.2562 26.6775C18.3348 26.6775 19.3885 27.0494 20.2245 27.7248L20.2977 27.7915L20.3536 27.8544C20.379 27.8821 20.4179 27.9229 20.4691 27.9747C20.6141 28.1212 20.7709 28.2649 20.9347 28.4025C21.2975 28.7069 21.8725 29.1263 22.5545 29.3973C23.0196 29.5818 23.4772 29.6753 23.9143 29.6753C24.3216 29.6753 24.653 30.0069 24.653 30.4145C24.653 30.8222 24.3216 31.1538 23.9143 31.1538C23.2876 31.1533 22.647 31.0246 22.0096 30.771C21.5139 30.5738 21.0187 30.3013 20.5372 29.9609C19.8684 29.487 19.4093 29.0113 19.2554 28.8426C18.6795 28.3936 17.9891 28.156 17.2564 28.156C16.7284 28.156 16.2243 28.2786 15.7582 28.5214C15.2368 28.7919 14.797 29.1996 14.4867 29.6993C14.169 30.2126 14.0005 30.8058 14 31.4145C14.0005 32.2838 14.3389 33.1019 14.9537 33.7181C15.5691 34.3333 16.3871 34.6719 17.2564 34.6724C17.3639 34.6724 17.4156 34.6719 17.4587 34.6673L17.4878 34.6635L17.5427 34.601C17.6831 34.4427 17.8844 34.3526 18.0956 34.3526C18.2764 34.3526 18.4505 34.4183 18.5861 34.5391C18.7335 34.67 18.8213 34.8509 18.833 35.0486C18.8442 35.2454 18.7785 35.4351 18.6472 35.5826C18.3796 35.8846 18.1722 36.2275 18.0323 36.5999C17.8943 36.9676 17.8244 37.3532 17.8244 37.7473C17.8247 38.6772 18.2228 39.5648 18.916 40.1828C19.5126 40.7135 20.2805 41.0062 21.0774 41.0066C21.4342 41.0066 21.7951 40.9456 22.1358 40.8291C22.0523 40.4741 22.0105 40.1096 22.0105 39.7414C22.0105 39.1529 22.1354 38.5457 22.371 37.9835C22.6357 37.3514 23.0355 36.8004 23.5275 36.39C23.6603 36.2791 23.8284 36.2181 24.0006 36.2181C24.2208 36.2181 24.4272 36.3149 24.5681 36.4839C24.8281 36.7967 24.7863 37.2636 24.4742 37.5247C24.163 37.784 23.9068 38.14 23.7326 38.5556C23.5745 38.9327 23.4872 39.354 23.4876 39.7415C23.4876 40.6113 23.8265 41.4294 24.4413 42.0457C25.0567 42.661 25.8743 42.9995 26.744 43C27.6133 42.9996 28.4314 42.661 29.0467 42.0457C29.6611 41.4299 29.9995 40.6113 30 39.7415V33.8178H27.2429C26.836 33.8178 26.5047 33.4867 26.5047 33.079C26.5047 32.6714 26.836 32.3397 27.2429 32.3397H30V27.847C29.6864 27.7024 29.3438 27.6262 28.9974 27.6258C28.7543 27.6258 28.5112 27.6634 28.2751 27.7367C27.6574 27.9504 27.0346 28.0612 26.4352 28.0612C25.2942 28.0612 24.2545 27.6554 23.5017 26.919C22.7858 26.2201 22.3747 25.2564 22.3743 24.2743C22.3738 23.4013 22.685 22.5667 23.2755 21.8608C23.4162 21.6917 23.6228 21.5954 23.8424 21.5954C24.0152 21.5954 24.1832 21.6565 24.3155 21.7673C24.6282 22.029 24.6699 22.4953 24.4094 22.8081C24.0405 23.2515 23.8528 23.745 23.8524 24.2749C23.8524 24.8596 24.1006 25.4382 24.5338 25.8613C25.0182 26.3324 25.6758 26.5818 26.4357 26.5827C26.8722 26.5827 27.3354 26.4987 27.8118 26.3334C28.2122 26.2075 28.6036 26.1478 28.9979 26.1478C29.3382 26.1478 29.6733 26.192 30 26.2808V14.2585C29.9995 13.3887 29.6611 12.5701 29.0467 11.9548C28.4314 11.339 27.6133 11.0005 26.744 11Z" fill="#1C1C1C"/>
<defs>
<filter id="filter0_d_206_473" x="0" y="0" width="60" height="58" filterUnits="userSpaceOnUse" color-interpolation-filters="sRGB">
<feFlood flood-opacity="0" result="BackgroundImageFix"/>
<feColorMatrix in="SourceAlpha" type="matrix" values="0 0 0 0 0 0 0 0 0 0 0 0 0 0 0 0 0 0 127 0" result="hardAlpha"/>
<feOffset dy="2"/>
<feGaussianBlur stdDeviation="2"/>
<feColorMatrix type="matrix" values="0 0 0 0 0.0601947 0 0 0 0 0.856799 0 0 0 0 0.536088 0 0 0 0.3 0"/>
<feBlend mode="normal" in2="BackgroundImageFix" result="effect1_dropShadow_206_473"/>
<feBlend mode="normal" in="SourceGraphic" in2="effect1_dropShadow_206_473" result="shape"/>
</filter>
</defs>
</svg>
