<svg width="18" height="11" viewBox="0 0 18 11" fill="none" xmlns="http://www.w3.org/2000/svg">
<path d="M13.2071 0.292893C12.8166 -0.0976311 12.1834 -0.0976311 11.7929 0.292893C11.4024 0.683417 11.4024 1.31658 11.7929 1.70711L13.2071 0.292893ZM16.2929 6.20711C16.6834 6.59763 17.3166 6.59763 17.7071 6.20711C18.0976 5.81658 18.0976 5.18342 17.7071 4.79289L16.2929 6.20711ZM17.7071 6.20711C18.0976 5.81658 18.0976 5.18342 17.7071 4.79289C17.3166 4.40237 16.6834 4.40237 16.2929 4.79289L17.7071 6.20711ZM11.7929 9.29289C11.4024 9.68342 11.4024 10.3166 11.7929 10.7071C12.1834 11.0976 12.8166 11.0976 13.2071 10.7071L11.7929 9.29289ZM17 6.5C17.5523 6.5 18 6.05228 18 5.5C18 4.94772 17.5523 4.5 17 4.5V6.5ZM1 4.5C0.447715 4.5 0 4.94772 0 5.5C0 6.05228 0.447715 6.5 1 6.5V4.5ZM11.7929 1.70711L16.2929 6.20711L17.7071 4.79289L13.2071 0.292893L11.7929 1.70711ZM16.2929 4.79289L11.7929 9.29289L13.2071 10.7071L17.7071 6.20711L16.2929 4.79289ZM17 4.5H1V6.5H17V4.5Z" fill="white"/>
</svg>
