<svg width="38" height="48" viewBox="0 0 38 48" fill="none" xmlns="http://www.w3.org/2000/svg">
<rect width="38" height="48" rx="12" fill="#4657A7"/>
<path fill-rule="evenodd" clip-rule="evenodd" d="M13.9734 17.3333H24.0267C24.3922 17.3333 24.7076 17.3333 24.9687 17.3511C25.2435 17.3699 25.5184 17.4111 25.7901 17.5236C26.4026 17.7774 26.8894 18.2641 27.143 18.8766C27.2555 19.1482 27.2968 19.4232 27.3156 19.698C27.3334 19.9591 27.3334 20.2745 27.3334 20.64V27.36C27.3334 27.7255 27.3334 28.0409 27.3156 28.302C27.2968 28.5768 27.2555 28.8518 27.143 29.1234C26.8894 29.7359 26.4026 30.2227 25.7901 30.4763C25.5184 30.5888 25.2435 30.6301 24.9687 30.6489C24.7076 30.6667 24.3922 30.6667 24.0267 30.6667H13.9734C13.6078 30.6667 13.2924 30.6667 13.0314 30.6489C12.7565 30.6301 12.4816 30.5888 12.21 30.4763C11.5974 30.2227 11.1107 29.7359 10.857 29.1234C10.7445 28.8518 10.7032 28.5768 10.6845 28.302C10.6667 28.0409 10.6667 27.7255 10.6667 27.36V20.64C10.6667 20.2745 10.6667 19.9591 10.6845 19.698C10.7032 19.4232 10.7445 19.1482 10.857 18.8766C11.1107 18.2641 11.5974 17.7774 12.21 17.5236C12.4816 17.4111 12.7565 17.3699 13.0314 17.3511C13.2924 17.3333 13.6078 17.3333 13.9734 17.3333ZM12.5979 19.2315C12.901 18.8851 13.4274 18.85 13.7738 19.1531L18.4513 23.2458C18.7654 23.5208 19.2346 23.5208 19.5488 23.2458L24.2263 19.1531C24.5726 18.85 25.0991 18.8851 25.4021 19.2315C25.7052 19.5779 25.6701 20.1043 25.3238 20.4074L20.6463 24.5002C19.7037 25.3249 18.2964 25.3249 17.3538 24.5002L12.6763 20.4074C12.3299 20.1043 12.2948 19.5779 12.5979 19.2315Z" fill="#FAFAFA"/>
</svg>
