<svg width="20" height="16" viewBox="0 0 20 16" fill="none" xmlns="http://www.w3.org/2000/svg">
<path d="M3.502 5.97475L1.23911 3.70913C0.955908 3.42553 0.496533 3.42514 0.21294 3.70834C-0.0706541 3.99155 -0.0710447 4.45092 0.212158 4.73452L2.47505 7.00014C2.75825 7.28373 3.21763 7.28413 3.50122 7.00092C3.78481 6.71772 3.78521 6.25834 3.502 5.97475Z" fill="#96A7AF"/>
<path d="M7.98637 3.49389L7.06489 0.511467C6.94653 0.128655 6.54028 -0.0857984 6.15746 0.032561C5.77465 0.15092 5.5602 0.55717 5.67856 0.939983L6.60004 3.9224C6.7184 4.30522 7.12465 4.51967 7.50746 4.40131C7.89028 4.28334 8.10473 3.8767 7.98637 3.49389Z" fill="#96A7AF"/>
<path d="M17.525 7.00054L19.7879 4.73648C20.0711 4.45289 20.0711 3.99351 19.7875 3.71031C19.504 3.42711 19.0446 3.42711 18.7614 3.7107L16.4985 5.97476C16.2153 6.25836 16.2153 6.71773 16.4989 7.00093C16.7825 7.28414 17.2418 7.28414 17.525 7.00054Z" fill="#96A7AF"/>
<path d="M13.4 3.9224L14.3215 0.939983C14.4399 0.55717 14.2254 0.15053 13.8426 0.032561C13.4598 -0.0857984 13.0532 0.128655 12.9352 0.511467L12.0137 3.49389C11.8953 3.8767 12.1098 4.28334 12.4926 4.40131C12.8754 4.51967 13.2821 4.30522 13.4 3.9224Z" fill="#96A7AF"/>
<mask id="path-5-inside-1_155_540" fill="white">
<path d="M10.2004 3.61797V2.89219C6.93518 2.88945 4.58167 4.37578 3.09729 5.84883C2.35081 6.58633 1.81096 7.32305 1.45237 7.88984C1.27307 8.17344 1.13909 8.41445 1.0469 8.5957L0.937134 8.82578L0.898462 8.92109L0.876587 8.98711C0.869946 9.025 0.851978 9.03984 0.846509 9.19687C0.852368 9.35391 0.869946 9.36875 0.876587 9.40664L0.957837 9.61484C1.18401 10.1035 1.96018 11.5258 3.45784 12.8848C4.94768 14.2371 7.1887 15.5027 10.2004 15.5C13.4656 15.5027 15.8192 14.0168 17.3035 12.5441C18.05 11.8066 18.5899 11.0703 18.9485 10.5039C19.1278 10.2203 19.2617 9.9793 19.3539 9.79805L19.4637 9.56797L19.5024 9.47266L19.5242 9.40664C19.5309 9.36875 19.5489 9.35391 19.5543 9.19687C19.5485 9.03984 19.5309 9.025 19.5242 8.98711L19.443 8.77891C19.2168 8.29023 18.4406 6.86758 16.9434 5.5082C15.4535 4.15547 13.2121 2.88945 10.2004 2.89219V3.61797L10.2008 4.34375C13.0121 4.34648 14.9731 5.59336 16.284 6.88125C16.9352 7.52422 17.4129 8.17539 17.7223 8.66523C17.877 8.90977 17.9903 9.11445 18.061 9.25391L18.1336 9.40547L18.1403 9.4207L18.141 9.42266L18.5274 9.27617L18.1321 9.3957L18.141 9.42266L18.5274 9.27617L18.1321 9.3957L18.7906 9.19687H18.1031C18.1106 9.36601 18.1281 9.36601 18.1321 9.3957L18.7906 9.19687H18.1031H18.7946L18.1289 9.00547C18.1246 9.03477 18.109 9.04336 18.1031 9.19687H18.7946L18.1289 9.00547L18.5899 9.13828L18.1391 8.97305L18.1289 9.00547L18.5899 9.13828L18.1391 8.97305C18.1141 9.03828 17.9207 9.43984 17.5828 9.94023C17.0731 10.7012 16.2176 11.7398 15.0012 12.5734C13.7821 13.4078 12.2153 14.0469 10.1992 14.0484C7.38752 14.0457 5.42659 12.7992 4.11604 11.5113C3.46487 10.8684 2.98713 10.2176 2.67776 9.72773C2.52307 9.4832 2.40979 9.27852 2.33909 9.13906L2.26643 8.9875L2.25979 8.97226L2.25901 8.97031L1.87268 9.1168L2.26799 8.99727L2.25901 8.97031L1.87268 9.1168L2.26799 8.99727L1.6094 9.19609H2.2969C2.28948 9.02695 2.2719 9.02695 2.26799 8.99727L1.6094 9.19609H2.2969H1.60588L2.27151 9.3875C2.27581 9.3582 2.29221 9.34961 2.29807 9.19609H1.60588L2.27151 9.3875L1.81018 9.25469L2.26096 9.41992L2.27151 9.3875L1.81018 9.25469L2.26096 9.41992C2.28596 9.3543 2.47971 8.95312 2.81721 8.45234C3.32698 7.69102 4.18245 6.65234 5.39885 5.81836C6.61838 4.98399 8.18518 4.34531 10.2008 4.34375L10.2004 3.61797Z"/>
</mask>
<path d="M10.2004 3.61797V2.89219C6.93518 2.88945 4.58167 4.37578 3.09729 5.84883C2.35081 6.58633 1.81096 7.32305 1.45237 7.88984C1.27307 8.17344 1.13909 8.41445 1.0469 8.5957L0.937134 8.82578L0.898462 8.92109L0.876587 8.98711C0.869946 9.025 0.851978 9.03984 0.846509 9.19687C0.852368 9.35391 0.869946 9.36875 0.876587 9.40664L0.957837 9.61484C1.18401 10.1035 1.96018 11.5258 3.45784 12.8848C4.94768 14.2371 7.1887 15.5027 10.2004 15.5C13.4656 15.5027 15.8192 14.0168 17.3035 12.5441C18.05 11.8066 18.5899 11.0703 18.9485 10.5039C19.1278 10.2203 19.2617 9.9793 19.3539 9.79805L19.4637 9.56797L19.5024 9.47266L19.5242 9.40664C19.5309 9.36875 19.5489 9.35391 19.5543 9.19687C19.5485 9.03984 19.5309 9.025 19.5242 8.98711L19.443 8.77891C19.2168 8.29023 18.4406 6.86758 16.9434 5.5082C15.4535 4.15547 13.2121 2.88945 10.2004 2.89219V3.61797L10.2008 4.34375C13.0121 4.34648 14.9731 5.59336 16.284 6.88125C16.9352 7.52422 17.4129 8.17539 17.7223 8.66523C17.877 8.90977 17.9903 9.11445 18.061 9.25391L18.1336 9.40547L18.1403 9.4207L18.141 9.42266L18.5274 9.27617L18.1321 9.3957L18.141 9.42266L18.5274 9.27617L18.1321 9.3957L18.7906 9.19687H18.1031C18.1106 9.36601 18.1281 9.36601 18.1321 9.3957L18.7906 9.19687H18.1031H18.7946L18.1289 9.00547C18.1246 9.03477 18.109 9.04336 18.1031 9.19687H18.7946L18.1289 9.00547L18.5899 9.13828L18.1391 8.97305L18.1289 9.00547L18.5899 9.13828L18.1391 8.97305C18.1141 9.03828 17.9207 9.43984 17.5828 9.94023C17.0731 10.7012 16.2176 11.7398 15.0012 12.5734C13.7821 13.4078 12.2153 14.0469 10.1992 14.0484C7.38752 14.0457 5.42659 12.7992 4.11604 11.5113C3.46487 10.8684 2.98713 10.2176 2.67776 9.72773C2.52307 9.4832 2.40979 9.27852 2.33909 9.13906L2.26643 8.9875L2.25979 8.97226L2.25901 8.97031L1.87268 9.1168L2.26799 8.99727L2.25901 8.97031L1.87268 9.1168L2.26799 8.99727L1.6094 9.19609H2.2969C2.28948 9.02695 2.2719 9.02695 2.26799 8.99727L1.6094 9.19609H2.2969H1.60588L2.27151 9.3875C2.27581 9.3582 2.29221 9.34961 2.29807 9.19609H1.60588L2.27151 9.3875L1.81018 9.25469L2.26096 9.41992L2.27151 9.3875L1.81018 9.25469L2.26096 9.41992C2.28596 9.3543 2.47971 8.95312 2.81721 8.45234C3.32698 7.69102 4.18245 6.65234 5.39885 5.81836C6.61838 4.98399 8.18518 4.34531 10.2008 4.34375L10.2004 3.61797Z" fill="#96A7AF"/>
<path d="M10.2004 3.61797L7.70041 3.61797L7.70042 3.61932L10.2004 3.61797ZM18.5274 9.27617L19.4137 11.6138L17.8038 6.88317L18.5274 9.27617ZM18.1321 9.3957L17.4085 7.0027L18.8546 11.789L18.1321 9.3957ZM18.7906 9.19687L19.5132 11.5902L18.7906 6.69687V9.19687ZM18.7946 9.19687V11.6969L19.4855 6.79424L18.7946 9.19687ZM18.1289 9.00547L18.8198 6.60283L17.4368 11.4077L18.1289 9.00547ZM18.5899 9.13828L17.8977 11.5405L19.4503 6.791L18.5899 9.13828ZM18.1391 8.97305L15.998 10.2637L16.4523 11.0174L17.2787 11.3203L18.1391 8.97305ZM1.87268 9.1168L0.98633 6.77919L2.59625 11.5098L1.87268 9.1168ZM2.26799 8.99727L2.99157 11.3903L1.54546 6.60395L2.26799 8.99727ZM1.6094 9.19609L0.886863 6.80278L1.6094 11.6961V9.19609ZM2.27151 9.3875L1.58061 11.7901L2.96314 6.98508L2.27151 9.3875ZM1.81018 9.25469L2.50182 6.85226L0.949786 11.602L1.81018 9.25469ZM2.26096 9.41992L1.40057 11.7672L8.89568 14.5145L4.30656 7.98272L2.26096 9.41992ZM12.7004 3.61797V2.89219H7.70041V3.61797H12.7004ZM7.70042 3.61932L7.70081 4.3451L12.7008 4.3424L12.7004 3.61662L7.70042 3.61932ZM19.0274 11.7603L19.4137 11.6138L17.641 6.93857L17.2547 7.08505L19.0274 11.7603ZM17.8038 6.88317L17.4085 7.0027L18.8556 11.7887L19.2509 11.6692L17.8038 6.88317ZM18.8546 11.789L19.5132 11.5902L18.0681 6.80356L17.4095 7.00239L18.8546 11.789ZM18.7906 6.69687H18.1031V11.6969H18.7906V6.69687ZM18.1031 11.6969H18.7946V6.69687H18.1031V11.6969ZM19.4855 6.79424L18.8198 6.60283L17.438 11.4081L18.1037 11.5995L19.4855 6.79424ZM17.4368 11.4077L17.8977 11.5405L19.282 6.73601L18.8211 6.6032L17.4368 11.4077ZM19.4503 6.791L18.9995 6.62577L17.2787 11.3203L17.7295 11.4856L19.4503 6.791ZM20.2802 7.68242L20.1001 7.38372L15.8179 9.96497L15.998 10.2637L20.2802 7.68242ZM1.37266 6.63271L0.98633 6.77919L2.75903 11.4544L3.14536 11.3079L1.37266 6.63271ZM2.59625 11.5098L2.99157 11.3903L1.54442 6.60427L1.14911 6.7238L2.59625 11.5098ZM1.54546 6.60395L0.886863 6.80278L2.33194 11.5894L2.99053 11.3906L1.54546 6.60395ZM1.6094 11.6961H2.2969V6.69609H1.6094V11.6961ZM0.914987 11.5987L1.58061 11.7901L2.96241 6.98486L2.29678 6.79346L0.914987 11.5987ZM2.96314 6.98508L2.50182 6.85226L1.11855 11.6571L1.57987 11.7899L2.96314 6.98508ZM0.949786 11.602L1.40057 11.7672L3.12136 7.07264L2.67057 6.90741L0.949786 11.602ZM4.30656 7.98272L4.08627 7.66918L-0.00492747 10.5436L0.215365 10.8571L4.30656 7.98272ZM10.2004 2.89219L10.1962 7.89219L10.205 7.89219L10.2004 2.89219ZM3.09729 5.84883L6.61136 9.40571L6.61925 9.39788L3.09729 5.84883ZM1.45237 7.88984L-2.773 5.21659L-2.77383 5.21791L1.45237 7.88984ZM1.0469 8.5957L-3.40976 6.32895L-3.43852 6.3855L-3.46584 6.44276L1.0469 8.5957ZM0.937134 8.82578L-3.57561 6.67284L-3.63989 6.80759L-3.69603 6.94593L0.937134 8.82578ZM0.898462 8.92109L-3.7347 7.04125L-3.79626 7.19296L-3.84776 7.34838L0.898462 8.92109ZM0.876587 8.98711L-3.86963 7.4144L-3.98502 7.76263L-4.04835 8.12397L0.876587 8.98711ZM0.846509 9.19687L-4.15046 9.02285L-4.15674 9.20309L-4.15001 9.38331L0.846509 9.19687ZM0.876587 9.40664L-4.04835 10.2698L-3.96237 10.7604L-3.7813 11.2243L0.876587 9.40664ZM0.957837 9.61484L-3.70005 11.4326L-3.64423 11.5756L-3.57973 11.715L0.957837 9.61484ZM3.45784 12.8848L6.8184 9.18252L6.81779 9.18196L3.45784 12.8848ZM10.2004 15.5L10.2046 10.5L10.1959 10.5L10.2004 15.5ZM17.3035 12.5441L13.7895 8.98726L13.782 8.99462L17.3035 12.5441ZM18.9485 10.5039L23.173 13.1785L23.1747 13.1758L18.9485 10.5039ZM19.3539 9.79805L23.8106 12.0648L23.8394 12.0082L23.8667 11.951L19.3539 9.79805ZM19.4637 9.56797L23.9764 11.7209L24.0407 11.5862L24.0969 11.4478L19.4637 9.56797ZM19.5024 9.47266L24.1355 11.3525L24.1971 11.2008L24.2486 11.0454L19.5024 9.47266ZM19.5242 9.40664L24.2705 10.9794L24.3858 10.6311L24.4492 10.2698L19.5242 9.40664ZM19.5543 9.19687L24.5513 9.3709L24.5576 9.19066L24.5508 9.01044L19.5543 9.19687ZM19.5242 8.98711L24.4492 8.12397L24.3632 7.63337L24.1821 7.16937L19.5242 8.98711ZM19.443 8.77891L24.1009 6.96117L24.045 6.81813L23.9806 6.67879L19.443 8.77891ZM16.9434 5.5082L13.5823 9.20997L13.5824 9.21009L16.9434 5.5082ZM10.2008 4.34375L10.2057 -0.656255L10.1969 -0.656248L10.2008 4.34375ZM16.284 6.88125L19.7971 3.32336L19.788 3.3145L16.284 6.88125ZM17.7223 8.66523L13.4948 11.3352L13.4968 11.3382L17.7223 8.66523ZM18.061 9.25391L22.5697 7.09251L22.5457 7.04243L22.5205 6.99289L18.061 9.25391ZM18.1336 9.40547L22.717 7.40741L22.6811 7.32507L22.6423 7.24407L18.1336 9.40547ZM18.1403 9.4207L22.7834 7.5657L22.7547 7.49371L22.7237 7.42265L18.1403 9.4207ZM18.141 9.42266L13.4979 11.2777L22.8844 7.84134L18.141 9.42266ZM18.1321 9.3957L13.1748 10.048L13.2373 10.5227L13.3887 10.977L18.1321 9.3957ZM18.1031 9.19687L13.1068 9.00617L13.099 9.21114L13.108 9.41606L18.1031 9.19687ZM18.1289 9.00547L13.3576 7.51076L13.2393 7.88837L13.1819 8.2799L18.1289 9.00547ZM18.1391 8.97305L22.9104 10.4678L13.4702 7.18377L18.1391 8.97305ZM17.5828 9.94023L13.4391 7.14215L13.4339 7.14976L13.4288 7.15739L17.5828 9.94023ZM15.0012 12.5734L17.8251 16.6996L17.8277 16.6979L15.0012 12.5734ZM10.1992 14.0484L10.1944 19.0484L10.2031 19.0484L10.1992 14.0484ZM4.11604 11.5113L0.602979 15.0692L0.611468 15.0776L4.11604 11.5113ZM2.67776 9.72773L6.9052 7.05777L6.90328 7.05472L2.67776 9.72773ZM2.33909 9.13906L-2.16962 11.3004L-2.14561 11.3505L-2.12049 11.4001L2.33909 9.13906ZM2.26643 8.9875L-2.31707 10.9854L-2.28114 11.0678L-2.24227 11.1489L2.26643 8.9875ZM2.25979 8.97226L-2.3825 10.8295L-2.35418 10.9003L-2.32371 10.9701L2.25979 8.97226ZM2.25901 8.97031L6.90129 7.11311L-2.48441 10.5514L2.25901 8.97031ZM2.26799 8.99727L7.22526 8.34499L7.16281 7.87033L7.01141 7.41614L2.26799 8.99727ZM2.2969 9.19609V14.1961H7.52111L7.29209 8.9769L2.2969 9.19609ZM2.27151 9.3875L7.02625 10.9342L7.15717 10.5318L7.21858 10.1131L2.27151 9.3875ZM2.29807 9.19609L7.29443 9.38679L7.49255 4.19609L2.29807 4.19609V9.19609ZM2.26096 9.41992L-2.49378 7.87318L6.9334 11.1999L2.26096 9.41992ZM2.81721 8.45234L6.96348 11.2467L6.96769 11.2405L6.97188 11.2342L2.81721 8.45234ZM5.39885 5.81836L2.57553 1.69176L2.5715 1.69452L5.39885 5.81836ZM10.2046 -2.10781C5.28717 -2.11193 1.73251 0.159054 -0.424674 2.29978L6.61925 9.39788C7.43082 8.59251 8.58319 7.89083 10.1962 7.89219L10.2046 -2.10781ZM-0.416773 2.29195C-1.48438 3.34671 -2.25414 4.39648 -2.773 5.21659L5.67773 10.5631C5.87606 10.2496 6.186 9.82594 6.61135 9.4057L-0.416773 2.29195ZM-2.77383 5.21791C-3.03367 5.6289 -3.24498 6.00497 -3.40976 6.32895L5.50356 10.8625C5.52315 10.8239 5.57982 10.718 5.67857 10.5618L-2.77383 5.21791ZM-3.46584 6.44276L-3.57561 6.67284L5.44987 10.9787L5.55964 10.7486L-3.46584 6.44276ZM-3.69603 6.94593L-3.7347 7.04125L5.53162 10.8009L5.57029 10.7056L-3.69603 6.94593ZM-3.84776 7.34838L-3.86963 7.4144L5.6228 10.5598L5.64468 10.4938L-3.84776 7.34838ZM-4.04835 8.12397C-3.99415 7.81473 -3.91548 7.56397 -3.92616 7.60019C-3.93351 7.62514 -3.98293 7.78944 -4.02828 8.00141C-4.11706 8.41643 -4.14183 8.77503 -4.15046 9.02285L5.84348 9.3709C5.84032 9.46168 5.82726 9.73435 5.75049 10.0932C5.73162 10.1814 5.71211 10.26 5.69416 10.3268C5.67802 10.3868 5.66342 10.4357 5.66587 10.4274C5.66596 10.4271 5.6676 10.4215 5.66941 10.4153C5.67138 10.4086 5.67447 10.398 5.67818 10.3851C5.6855 10.3595 5.697 10.3188 5.71015 10.2686C5.73776 10.1633 5.77164 10.0208 5.80152 9.85024L-4.04835 8.12397ZM-4.15001 9.38331C-4.14093 9.62668 -4.11607 9.9779 -4.02986 10.3842C-3.98574 10.5921 -3.93788 10.7532 -3.93041 10.7789C-3.91978 10.8153 -3.9956 10.5707 -4.04835 10.2698L5.80152 8.54351C5.77237 8.37718 5.73955 8.23819 5.71287 8.13551C5.70016 8.0866 5.68906 8.04685 5.68202 8.02202C5.67845 8.00946 5.67548 7.99915 5.6736 7.99266C5.67187 7.98668 5.6703 7.98129 5.67023 7.98107C5.66797 7.97331 5.68211 8.02117 5.69779 8.08014C5.7152 8.14563 5.73409 8.22249 5.75237 8.30867C5.82667 8.65882 5.83981 8.9241 5.84303 9.01044L-4.15001 9.38331ZM-3.7813 11.2243L-3.70005 11.4326L5.61573 7.79714L5.53448 7.58893L-3.7813 11.2243ZM-3.57973 11.715C-3.14543 12.6533 -2.01011 14.6748 0.0978886 16.5876L6.81779 9.18196C6.38988 8.79367 6.06247 8.39309 5.83062 8.06103C5.5933 7.72114 5.48822 7.4992 5.4954 7.51472L-3.57973 11.715ZM0.0972776 16.587C2.28743 18.575 5.67998 20.5041 10.205 20.5L10.1959 10.5C8.69741 10.5014 7.60793 9.89918 6.8184 9.18252L0.0972776 16.587ZM10.1962 20.5C15.1132 20.5041 18.6677 18.2339 20.825 16.0937L13.782 8.99462C12.9706 9.79965 11.8181 10.5014 10.2046 10.5L10.1962 20.5ZM20.8176 16.101C21.8846 15.0468 22.6541 13.998 23.173 13.1785L14.7239 7.82934C14.5256 8.14261 14.2154 8.56645 13.7895 8.98727L20.8176 16.101ZM23.1747 13.1758C23.4345 12.7648 23.6458 12.3888 23.8106 12.0648L14.8973 7.53129C14.8777 7.56982 14.821 7.67578 14.7223 7.83197L23.1747 13.1758ZM23.8667 11.951L23.9764 11.7209L14.951 7.41503L14.8412 7.64511L23.8667 11.951ZM24.0969 11.4478L24.1355 11.3525L14.8692 7.59283L14.8305 7.68814L24.0969 11.4478ZM24.2486 11.0454L24.2705 10.9794L14.778 7.83391L14.7562 7.89992L24.2486 11.0454ZM24.4492 10.2698C24.395 10.579 24.3163 10.8297 24.327 10.7935C24.3344 10.7685 24.3838 10.6043 24.4291 10.3923C24.5179 9.97729 24.5427 9.6187 24.5513 9.3709L14.5573 9.02285C14.5605 8.93208 14.5736 8.65943 14.6503 8.30058C14.6692 8.21237 14.6887 8.1338 14.7067 8.06702C14.7228 8.00698 14.7374 7.95811 14.7349 7.96642C14.7349 7.96674 14.7332 7.97227 14.7314 7.97847C14.7294 7.98518 14.7263 7.99579 14.7226 8.00871C14.7153 8.03424 14.7038 8.07502 14.6907 8.12519C14.6631 8.23049 14.6292 8.37298 14.5993 8.54351L24.4492 10.2698ZM24.5508 9.01044C24.5418 8.76708 24.5169 8.41588 24.4307 8.00959C24.3866 7.80166 24.3387 7.64057 24.3313 7.61494C24.3206 7.57844 24.3964 7.82303 24.4492 8.12397L14.5993 9.85024C14.6285 10.0166 14.6613 10.1555 14.688 10.2582C14.7007 10.3071 14.7118 10.3469 14.7188 10.3717C14.7224 10.3842 14.7253 10.3946 14.7272 10.401C14.7289 10.407 14.7305 10.4124 14.7306 10.4126C14.7328 10.4204 14.7187 10.3725 14.703 10.3136C14.6856 10.2481 14.6667 10.1712 14.6484 10.085C14.5742 9.7349 14.561 9.46964 14.5578 9.38331L24.5508 9.01044ZM24.1821 7.16937L24.1009 6.96117L14.7851 10.5966L14.8664 10.8048L24.1821 7.16937ZM23.9806 6.67879C23.5466 5.7411 22.4116 3.71952 20.3043 1.80632L13.5824 9.21009C14.0103 9.59856 14.3378 9.9994 14.5698 10.3318C14.8072 10.6719 14.9124 10.8942 14.9054 10.879L23.9806 6.67879ZM20.3045 1.80644C18.1143 -0.182203 14.7211 -2.11192 10.1959 -2.10781L10.205 7.89219C11.7031 7.89083 12.7928 8.49314 13.5823 9.20997L20.3045 1.80644ZM10.1959 9.34375C10.8343 9.34437 11.3048 9.48002 11.6766 9.6549C12.0686 9.83934 12.4344 10.1085 12.78 10.448L19.788 3.3145C17.8214 1.38245 14.6701 -0.651905 10.2057 -0.656247L10.1959 9.34375ZM12.771 10.4391C13.1015 10.7655 13.3482 11.1029 13.4948 11.3352L21.9497 5.99527C21.4777 5.24784 20.7689 4.28298 19.7971 3.32338L12.771 10.4391ZM13.4968 11.3382C13.5323 11.3944 13.5596 11.4406 13.5786 11.4739C13.5983 11.5084 13.6055 11.523 13.6014 11.5149L22.5205 6.99289C22.3748 6.70551 22.1827 6.36354 21.9478 5.99222L13.4968 11.3382ZM13.5523 11.4153L13.6249 11.5669L22.6423 7.24407L22.5697 7.09251L13.5523 11.4153ZM13.5502 11.4035L13.5568 11.4188L22.7237 7.42265L22.717 7.40741L13.5502 11.4035ZM13.4971 11.2757L13.4979 11.2777L22.7842 7.56766L22.7834 7.5657L13.4971 11.2757ZM13.3887 10.977L13.3977 11.004L22.8844 7.84134L22.8754 7.81439L13.3887 10.977ZM13.108 9.41606C13.1134 9.53938 13.123 9.69067 13.1422 9.85907C13.1617 10.0312 13.1937 10.2453 13.2502 10.4868C13.279 10.6099 13.31 10.7228 13.3413 10.8252C13.3693 10.9167 13.3968 10.9964 13.3921 10.9824C13.3916 10.9812 13.3887 10.9725 13.3849 10.9611C13.3809 10.9493 13.3749 10.9309 13.3676 10.9083C13.3531 10.8631 13.3314 10.7932 13.3077 10.7068C13.2565 10.5198 13.2077 10.2984 13.1748 10.048L23.0893 8.74343C23.073 8.61965 23.0524 8.49835 23.0279 8.3797C23.0035 8.26142 22.9773 8.15568 22.9523 8.06431C22.9277 7.97477 22.9051 7.90176 22.8896 7.85339C22.8752 7.80856 22.8628 7.77242 22.8618 7.76937C22.8548 7.74858 22.8797 7.82083 22.905 7.90351C22.9336 7.99703 22.9618 8.09968 22.9876 8.21034C23.0383 8.42698 23.0643 8.60752 23.0783 8.73117C23.092 8.85108 23.0966 8.93894 23.0983 8.97769L13.108 9.41606ZM13.1819 8.2799C13.2395 7.88683 13.3408 7.56882 13.3282 7.61139C13.3172 7.64893 13.2664 7.81877 13.2205 8.04091C13.137 8.44425 13.1151 8.78949 13.1068 9.00617L23.0995 9.38758C23.098 9.42814 23.094 9.50972 23.0827 9.6191C23.071 9.73285 23.0504 9.88681 23.0128 10.0683C22.9939 10.1596 22.9736 10.2439 22.9534 10.3199C22.9349 10.3898 22.918 10.4462 22.9196 10.4409C22.9196 10.4408 22.9201 10.439 22.9207 10.4372C22.9213 10.4351 22.9222 10.4319 22.9234 10.428C22.9256 10.4204 22.9293 10.4079 22.9337 10.3924C22.9423 10.362 22.9564 10.3117 22.9723 10.2493C23.0062 10.1163 23.0453 9.94028 23.076 9.73104L13.1819 8.2799ZM13.3677 7.47834L13.3576 7.51076L22.9003 10.5002L22.9104 10.4678L13.3677 7.47834ZM13.4702 7.18377C13.4795 7.15951 13.4879 7.13819 13.495 7.12041C13.5022 7.1025 13.5087 7.08653 13.5143 7.07281C13.5255 7.04579 13.5351 7.02313 13.5426 7.00593C13.5572 6.97219 13.5689 6.94614 13.5763 6.93001C13.5842 6.91291 13.5904 6.89975 13.5946 6.89096C13.5989 6.88192 13.6021 6.87536 13.6041 6.87135C13.6079 6.86354 13.6087 6.86209 13.6064 6.86663C13.6041 6.87093 13.5996 6.87946 13.5929 6.89175C13.5792 6.91667 13.5587 6.95284 13.532 6.99702C13.5053 7.04113 13.4741 7.09036 13.4391 7.14215L21.7266 12.7383C22.1908 12.0509 22.6009 11.3027 22.808 10.7623L13.4702 7.18377ZM13.4288 7.15739C13.16 7.55865 12.7233 8.07303 12.1747 8.44898L17.8277 16.6979C19.7119 15.4067 20.9861 13.8437 21.7368 12.7231L13.4288 7.15739ZM12.1773 8.44726C11.6697 8.79461 11.0697 9.04776 10.1954 9.04844L10.2031 19.0484C13.3609 19.046 15.8944 18.021 17.8251 16.6996L12.1773 8.44726ZM10.2041 9.04844C9.56513 9.04782 9.09442 8.9121 8.72282 8.73731C8.33095 8.55299 7.96553 8.28406 7.62061 7.9451L0.611468 15.0776C2.57868 17.0108 5.73026 19.0441 10.1944 19.0484L10.2041 9.04844ZM7.62909 7.95345C7.29791 7.62645 7.05128 7.28906 6.9052 7.05777L-1.54969 12.3977C-1.07701 13.1461 -0.368178 14.1103 0.602989 15.0692L7.62909 7.95345ZM6.90328 7.05472C6.86778 6.9986 6.84041 6.95238 6.82143 6.91906C6.80178 6.88457 6.79455 6.86994 6.79866 6.87804L-2.12049 11.4001C-1.97479 11.6874 -1.78265 12.0294 -1.54776 12.4007L6.90328 7.05472ZM6.84779 6.97768L6.77514 6.82612L-2.24227 11.1489L-2.16962 11.3004L6.84779 6.97768ZM6.84993 6.98962L6.84329 6.97439L-2.32371 10.9701L-2.31707 10.9854L6.84993 6.98962ZM6.90208 7.11507L6.90129 7.11311L-2.38328 10.8275L-2.3825 10.8295L6.90208 7.11507ZM7.01141 7.41614L7.00243 7.38919L-2.48441 10.5514L-2.47543 10.5784L7.01141 7.41614ZM7.29209 8.9769C7.28668 8.85359 7.27701 8.70229 7.25789 8.53389C7.23835 8.36173 7.2063 8.14762 7.14984 7.90612C7.12106 7.78303 7.09 7.67013 7.05873 7.56777C7.03077 7.47624 7.00325 7.39655 7.00799 7.41053C7.00841 7.41178 7.01137 7.42048 7.01516 7.43186C7.01911 7.44369 7.02519 7.46206 7.03245 7.48469C7.04695 7.52987 7.06865 7.59975 7.09232 7.68612C7.14357 7.87319 7.19231 8.09454 7.22526 8.34499L-2.68928 9.64954C-2.67299 9.77332 -2.65239 9.89462 -2.62789 10.0133C-2.60348 10.1316 -2.57725 10.2373 -2.55221 10.3287C-2.52768 10.4182 -2.50502 10.4912 -2.4895 10.5396C-2.47512 10.5844 -2.46279 10.6206 -2.46176 10.6236C-2.4547 10.6444 -2.47967 10.5722 -2.50493 10.4895C-2.5335 10.396 -2.56171 10.2933 -2.58758 10.1826C-2.63823 9.966 -2.66426 9.78546 -2.67829 9.6618C-2.6919 9.5419 -2.69659 9.45403 -2.69829 9.41528L7.29209 8.9769ZM2.2969 4.19609H1.60588V14.1961H2.2969V4.19609ZM7.21858 10.1131C7.15749 10.5296 7.04756 10.8635 7.05914 10.8255C7.06919 10.7926 7.12352 10.6173 7.17265 10.3886C7.26257 9.97015 7.28584 9.61187 7.29443 9.38679L-2.69829 9.00539C-2.69659 8.96071 -2.69223 8.87374 -2.67993 8.7581C-2.66714 8.63773 -2.64478 8.47678 -2.60425 8.28812C-2.58387 8.19328 -2.56211 8.10634 -2.54073 8.0286C-2.52126 7.95781 -2.50334 7.89991 -2.50585 7.90815C-2.50597 7.90853 -2.50803 7.91529 -2.51043 7.92323C-2.51299 7.9317 -2.51708 7.94531 -2.52198 7.962C-2.53166 7.99491 -2.54705 8.04838 -2.56432 8.11459C-2.60116 8.25574 -2.64323 8.44144 -2.67557 8.66193L7.21858 10.1131ZM2.29807 4.19609H1.60588V14.1961H2.29807V4.19609ZM7.0157 10.9667L7.02625 10.9342L-2.48323 7.84076L-2.49378 7.87318L7.0157 10.9667ZM6.9334 11.1999C6.92384 11.225 6.9152 11.247 6.90788 11.2654C6.9005 11.284 6.89378 11.3005 6.88795 11.3147C6.87645 11.3427 6.86648 11.3661 6.85881 11.3839C6.84377 11.4188 6.8316 11.4457 6.82399 11.4623C6.81592 11.4799 6.80952 11.4935 6.80521 11.5025C6.80077 11.5118 6.79748 11.5185 6.79545 11.5227C6.7915 11.5307 6.79064 11.5322 6.79305 11.5276C6.79533 11.5232 6.79992 11.5145 6.80678 11.502C6.82069 11.4766 6.84157 11.4398 6.86881 11.3948C6.89601 11.3498 6.92781 11.2996 6.96348 11.2467L-1.32905 5.65798C-1.78633 6.33648 -2.20144 7.08859 -2.41148 7.63994L6.9334 11.1999ZM6.97188 11.2342C7.24023 10.8334 7.67695 10.3188 8.22621 9.9422L2.5715 1.69452C0.687941 2.98591 -0.586276 4.54861 -1.33746 5.67048L6.97188 11.2342ZM8.22218 9.94496C8.73001 9.59751 9.33029 9.34443 10.2047 9.34375L10.1969 -0.656248C7.04007 -0.653801 4.50676 0.370457 2.57553 1.69176L8.22218 9.94496Z" fill="#96A7AF" mask="url(#path-5-inside-1_155_540)"/>
<path d="M6.83403 8.16576C6.77817 8.40912 6.75122 8.65365 6.75122 8.89427C6.75083 10.3771 7.76958 11.7115 9.27349 12.0579C9.51685 12.1138 9.76138 12.1408 10.002 12.1408C11.4848 12.1412 12.8192 11.1224 13.1657 9.61849L13.1661 9.61654C13.2219 9.37318 13.2489 9.12865 13.2489 8.88802C13.2493 7.40521 12.2305 6.07084 10.7266 5.72435C10.4833 5.66849 10.2387 5.64154 9.9981 5.64154C8.51528 5.64115 7.18091 6.6599 6.83442 8.16381V8.1642L6.83403 8.16576C6.74458 8.55677 6.98872 8.94584 7.37935 9.03529C7.76997 9.12474 8.15942 8.8806 8.24849 8.48998L8.24888 8.48802V8.48842C8.43833 7.65638 9.18169 7.0931 9.9981 7.09271C10.1309 7.09271 10.2657 7.10756 10.402 7.13881C11.234 7.32826 11.7973 8.07162 11.7977 8.88802C11.7977 9.02084 11.7829 9.1556 11.7516 9.29193L11.7512 9.29388C11.5618 10.1259 10.8184 10.6892 10.002 10.6896C9.86919 10.6896 9.73442 10.6747 9.5981 10.6435C8.76606 10.454 8.20278 9.71068 8.20239 8.89427C8.20239 8.76146 8.21724 8.6267 8.24849 8.49037C8.33794 8.09974 8.09419 7.71029 7.70356 7.62084C7.31294 7.53099 6.92349 7.77513 6.83403 8.16576Z" fill="#96A7AF"/>
</svg>
